<svg width="177" height="177" viewBox="0 0 177 177" fill="none" xmlns="http://www.w3.org/2000/svg">
<rect x="0.84375" y="0.921753" width="175.235" height="175.235" rx="87.6174" fill="#DFEFFF"/>
<rect x="1.8394" y="1.91741" width="173.243" height="173.243" rx="86.6217" stroke="url(#paint0_linear_706_5432)" stroke-opacity="0.4" stroke-width="1.9913"/>
<path d="M108.374 48.713H68.5483C57.5563 48.713 48.6353 57.5943 48.6353 68.5464V92.3624V96.345C48.6353 107.297 57.5563 116.178 68.5483 116.178H74.5222C75.5975 116.178 77.0313 116.895 77.7083 117.771L83.6822 125.697C86.3107 129.202 90.6119 129.202 93.2405 125.697L99.2144 117.771C99.9711 116.776 101.166 116.178 102.4 116.178H108.374C119.366 116.178 128.287 107.297 128.287 96.345V68.5464C128.287 57.5943 119.366 48.713 108.374 48.713ZM72.5309 88.5391C70.3006 88.5391 68.5483 86.747 68.5483 84.5565C68.5483 82.3661 70.3405 80.5739 72.5309 80.5739C74.7213 80.5739 76.5135 82.3661 76.5135 84.5565C76.5135 86.747 74.7612 88.5391 72.5309 88.5391ZM88.4613 88.5391C86.2311 88.5391 84.4787 86.747 84.4787 84.5565C84.4787 82.3661 86.2709 80.5739 88.4613 80.5739C90.6518 80.5739 92.4439 82.3661 92.4439 84.5565C92.4439 86.747 90.6916 88.5391 88.4613 88.5391ZM104.392 88.5391C102.162 88.5391 100.409 86.747 100.409 84.5565C100.409 82.3661 102.201 80.5739 104.392 80.5739C106.582 80.5739 108.374 82.3661 108.374 84.5565C108.374 86.747 106.622 88.5391 104.392 88.5391Z" fill="#0182FE"/>
<defs>
<linearGradient id="paint0_linear_706_5432" x1="88.4611" y1="0.921753" x2="88.4611" y2="133.343" gradientUnits="userSpaceOnUse">
<stop stop-color="#0182FE"/>
<stop offset="1" stop-color="#0182FE" stop-opacity="0"/>
</linearGradient>
</defs>
</svg>
