<svg width="88" height="88" viewBox="0 0 88 88" fill="none" xmlns="http://www.w3.org/2000/svg">
<rect width="88" height="88" rx="44" fill="#DFEFFF"/>
<rect x="0.5" y="0.5" width="87" height="87" rx="43.5" stroke="url(#paint0_linear_1936_271)" stroke-opacity="0.4"/>
<path d="M44 24C38.76 24 34.5 28.26 34.5 33.5C34.5 38.64 38.52 42.8 43.76 42.98C43.92 42.96 44.08 42.96 44.2 42.98C44.24 42.98 44.26 42.98 44.3 42.98C44.32 42.98 44.32 42.98 44.34 42.98C49.46 42.8 53.48 38.64 53.5 33.5C53.5 28.26 49.24 24 44 24Z" fill="#0182FE"/>
<path d="M54.16 48.32C48.58 44.6 39.48 44.6 33.86 48.32C31.32 50 29.92 52.3 29.92 54.76C29.92 57.22 31.32 59.5 33.84 61.18C36.64 63.06 40.32 64 44 64C47.68 64 51.36 63.06 54.16 61.18C56.68 59.48 58.08 57.2 58.08 54.72C58.06 52.28 56.68 49.98 54.16 48.32ZM48.66 53.12L43.62 58.16C43.38 58.4 43.06 58.52 42.74 58.52C42.42 58.52 42.1 58.38 41.86 58.16L39.34 55.64C38.86 55.16 38.86 54.36 39.34 53.88C39.82 53.4 40.62 53.4 41.1 53.88L42.74 55.52L46.9 51.36C47.38 50.88 48.18 50.88 48.66 51.36C49.16 51.84 49.16 52.64 48.66 53.12Z" fill="#0182FE"/>
<defs>
<linearGradient id="paint0_linear_1936_271" x1="44" y1="0" x2="44" y2="66.5" gradientUnits="userSpaceOnUse">
<stop stop-color="#0182FE"/>
<stop offset="1" stop-color="#0182FE" stop-opacity="0"/>
</linearGradient>
</defs>
</svg>
