<svg width="88" height="88" viewBox="0 0 88 88" fill="none" xmlns="http://www.w3.org/2000/svg">
<rect width="88" height="88" rx="44" fill="#DFEFFF"/>
<rect x="0.5" y="0.5" width="87" height="87" rx="43.5" stroke="url(#paint0_linear_1936_314)" stroke-opacity="0.4"/>
<path d="M60.42 35.6399L45.02 44.5599C44.4 44.9199 43.62 44.9199 42.98 44.5599L27.58 35.6399C26.48 34.9999 26.2 33.4999 27.04 32.5599C27.62 31.8999 28.28 31.3599 28.98 30.9799L39.82 24.9799C42.14 23.6799 45.9 23.6799 48.22 24.9799L59.06 30.9799C59.76 31.3599 60.42 31.9199 61 32.5599C61.8 33.4999 61.52 34.9999 60.42 35.6399Z" fill="#0182FE"/>
<path d="M42.86 48.28V61.92C42.86 63.44 41.32 64.44 39.96 63.78C35.84 61.76 28.9 57.98 28.9 57.98C26.46 56.6 24.46 53.12 24.46 50.26V39.94C24.46 38.36 26.12 37.36 27.48 38.14L41.86 46.48C42.46 46.86 42.86 47.54 42.86 48.28Z" fill="#0182FE"/>
<path d="M45.14 48.28V61.92C45.14 63.44 46.68 64.44 48.04 63.78C52.16 61.76 59.1 57.98 59.1 57.98C61.54 56.6 63.54 53.12 63.54 50.26V39.94C63.54 38.36 61.88 37.36 60.52 38.14L46.14 46.48C45.54 46.86 45.14 47.54 45.14 48.28Z" fill="#0182FE"/>
<defs>
<linearGradient id="paint0_linear_1936_314" x1="44" y1="0" x2="44" y2="66.5" gradientUnits="userSpaceOnUse">
<stop stop-color="#0182FE"/>
<stop offset="1" stop-color="#0182FE" stop-opacity="0"/>
</linearGradient>
</defs>
</svg>
