<svg width="88" height="88" viewBox="0 0 88 88" fill="none" xmlns="http://www.w3.org/2000/svg">
<rect width="88" height="88" rx="44" fill="#DFEFFF"/>
<rect x="0.5" y="0.5" width="87" height="87" rx="43.5" stroke="url(#paint0_linear_1930_821)" stroke-opacity="0.4"/>
<path d="M59.92 37.92C58.58 36.44 56.56 35.58 53.76 35.28V33.76C53.76 31.02 52.6 28.38 50.56 26.54C48.5 24.66 45.82 23.78 43.04 24.04C38.26 24.5 34.24 29.12 34.24 34.12V35.28C31.44 35.58 29.42 36.44 28.08 37.92C26.14 40.08 26.2 42.96 26.42 44.96L27.82 56.1C28.24 60 29.82 64 38.42 64H49.58C58.18 64 59.76 60 60.18 56.12L61.58 44.94C61.8 42.96 61.84 40.08 59.92 37.92ZM43.32 26.82C45.32 26.64 47.22 27.26 48.7 28.6C50.16 29.92 50.98 31.8 50.98 33.76V35.16H37.02V34.12C37.02 30.56 39.96 27.14 43.32 26.82ZM36.84 46.3H36.82C35.72 46.3 34.82 45.4 34.82 44.3C34.82 43.2 35.72 42.3 36.82 42.3C37.94 42.3 38.84 43.2 38.84 44.3C38.84 45.4 37.94 46.3 36.84 46.3ZM50.84 46.3H50.82C49.72 46.3 48.82 45.4 48.82 44.3C48.82 43.2 49.72 42.3 50.82 42.3C51.94 42.3 52.84 43.2 52.84 44.3C52.84 45.4 51.94 46.3 50.84 46.3Z" fill="#0182FE"/>
<defs>
<linearGradient id="paint0_linear_1930_821" x1="44" y1="0" x2="44" y2="66.5" gradientUnits="userSpaceOnUse">
<stop stop-color="#0182FE"/>
<stop offset="1" stop-color="#0182FE" stop-opacity="0"/>
</linearGradient>
</defs>
</svg>
