<svg width="133" height="49" viewBox="0 0 133 49" fill="none" xmlns="http://www.w3.org/2000/svg">
<path fill-rule="evenodd" clip-rule="evenodd" d="M87.1711 12.893C85.997 13.4038 85.6332 14.8874 86.4134 15.9834C87.0578 16.8882 87.6507 17.0344 90.6775 17.0344H93.3725L93.6518 18.046C95.3247 24.1029 99.315 38.0894 99.4626 38.4135C99.5675 38.6437 99.9067 38.9523 100.216 39.0992C100.74 39.3476 101.214 39.3063 107.009 38.5056C110.435 38.0324 116.049 37.2631 119.484 36.796C125.288 36.007 125.764 35.916 126.223 35.5068C126.677 35.1008 126.9 34.3229 129.092 25.4788C130.4 20.2054 131.472 15.6164 131.476 15.2811C131.481 14.816 131.352 14.5553 130.934 14.1816C130.633 13.9123 130.243 13.6918 130.069 13.6918C129.895 13.6918 122.443 14.7227 113.51 15.9827C104.576 17.2425 97.2493 18.252 97.2284 18.2258C97.2074 18.1994 96.9363 17.3085 96.6258 16.2457C96.3152 15.183 95.9735 14.208 95.8665 14.079C95.4394 13.5643 94.6314 13.3581 91.6581 13.0048C88.0451 12.5758 87.9084 12.5722 87.1711 12.893ZM124.758 18.3099C124.755 18.4309 124.681 18.8464 124.592 19.2335C124.503 19.6205 124.03 22.3121 123.542 25.2149C123.053 28.1176 122.612 30.6679 122.562 30.882C122.5 31.1487 122.264 31.3293 121.813 31.456C120.725 31.7616 104.682 35.1546 104.326 35.1546C103.93 35.1546 104.047 35.4234 102.058 29.9649C101.177 27.5459 100.312 25.1764 100.136 24.6993C99.96 24.2221 99.8546 23.7315 99.9016 23.6089C99.9997 23.3531 99.8254 23.3944 113.503 20.3866C119.163 19.1418 124.012 18.1158 124.278 18.1067C124.559 18.097 124.76 18.1823 124.758 18.3099ZM117.883 0.403401C116.444 0.895638 115.276 1.57893 114.325 2.48353C113.418 3.34557 113.579 3.51586 115.175 3.38761C115.794 3.338 116.299 3.357 116.299 3.43001C116.299 3.50302 115.975 3.87756 115.579 4.26231C113.153 6.61635 113.796 10.7898 116.71 11.6058C118.011 11.9703 119.777 11.7692 121.132 11.1023C124.205 9.58931 125.733 5.2642 124.234 2.32503C123.845 1.56345 122.662 0.423982 121.996 0.171002C121.195 -0.1337 119.108 -0.0160034 117.883 0.403401ZM129.799 35.8811C127.01 38.8077 125.382 40.1594 123.325 41.2538C120.81 42.5919 116.931 43.6779 113.125 44.1099C110.885 44.3642 107.077 44.2364 105.061 43.8392C101.392 43.1165 97.512 41.3784 94.0557 38.9091C92.0699 37.4906 91.6581 37.3073 91.6581 37.8424C91.6581 38.2464 93.2467 40.2589 94.6509 41.6338C99.1331 46.0228 104.573 48.2072 111.01 48.2034C119.224 48.1984 125.362 45.2109 130.034 38.9429C131.343 37.1871 132.772 34.5884 132.856 33.8115C132.969 32.7658 132.4 33.1509 129.799 35.8811Z" fill="#0182FE"/>
<path d="M96.9412 10.0013C98.0392 8.72619 99.4432 7.70565 101.215 6.89449C102.725 6.20337 105.372 5.78748 106.433 6.07403C107.314 6.312 108.969 7.61482 109.562 8.53684C110.722 10.3413 109.467 10.4394 107.948 10.0977C105.822 9.61956 103.602 9.39697 101.534 10.0829L101.416 10.1333C100.575 10.4928 99.6967 10.7583 98.7974 10.9248C98.3604 11.0057 97.9172 11.0809 97.4751 11.0349C96.9117 10.9763 96.2914 10.756 96.9412 10.0013Z" fill="#0182FE"/>
<path d="M0.43333 28.3696L2.44752 27.0071V17.3508L6.15995 16.403V28.9818L2.46727 31.4502L0.43333 28.3696ZM3.09917 11.644H5.94273V14.4283H3.09917V11.644ZM13.0492 26C12.1803 26 11.3773 25.7828 10.64 25.3484C9.90281 24.9139 9.31699 24.3281 8.88256 23.5909C8.44812 22.8537 8.23091 22.0506 8.23091 21.1817V12.3944L11.9236 11.4465V21.1817C11.9236 21.4845 12.0355 21.7412 12.2593 21.9519C12.4831 22.1625 12.7464 22.2678 13.0492 22.2678L13.7008 24.1438L13.0492 26ZM12.9828 26L12.3707 24.1438L13.0026 22.2678H13.0421C13.3449 22.2678 13.6016 22.1625 13.8122 21.9519C14.0228 21.7412 14.1281 21.4845 14.1281 21.1817V17.3508H17.8603V21.2212C17.8603 21.5109 17.9591 21.761 18.1565 21.9716C18.3672 22.1691 18.6173 22.2678 18.9069 22.2678C19.1965 22.2678 19.4401 22.1691 19.6375 21.9716C19.8482 21.761 19.9535 21.5109 19.9535 21.2212V17.3508H23.6857V21.2212C23.6857 21.5109 23.7844 21.761 23.9819 21.9716C24.1925 22.1691 24.4426 22.2678 24.7323 22.2678C25.0219 22.2678 25.2654 22.1691 25.4629 21.9716C25.6735 21.761 25.7788 21.5109 25.7788 21.2212V17.3311L29.4913 16.403V21.2212C29.4913 22.0901 29.2741 22.8931 28.8396 23.6304C28.4184 24.3544 27.8391 24.9337 27.1019 25.3681C26.3778 25.7894 25.588 26 24.7323 26C23.6791 26 22.7115 25.6709 21.8295 25.0127C21.4214 25.3286 20.9606 25.5721 20.4472 25.7433C19.9469 25.9144 19.4335 26 18.9069 26C18.3803 26 17.8603 25.9078 17.3469 25.7235C16.8466 25.5392 16.3925 25.2957 15.9844 24.9929C15.076 25.6643 14.0952 26 13.0421 26H12.9828ZM31.4427 24.1438L32.1141 22.2678H36.0635L36.7349 24.203L36.0635 26H32.1141L31.4427 24.1438ZM35.3959 24.1438L36.0673 22.2678H40.0167L40.6881 24.203L40.0167 26H36.0673L35.3959 24.1438ZM39.9416 26L39.3492 24.1438L39.9811 22.2678H40.0206C40.3233 22.2678 40.5801 22.1625 40.7907 21.9519C41.0013 21.7412 41.1066 21.4845 41.1066 21.1817V17.3113L44.8388 16.403V21.1817C44.8388 22.0506 44.6216 22.8537 44.1872 23.5909C43.7527 24.3281 43.1669 24.9139 42.4297 25.3484C41.6925 25.7828 40.8894 26 40.0206 26H39.9416ZM39.1517 11.6045H44.9178V14.4283H39.1517V11.6045ZM44.6904 28.3696L46.7046 27.0071V17.3508L50.417 16.403V28.9818L46.7243 31.4502L44.6904 28.3696ZM57.3062 26C56.4374 26 55.6343 25.7828 54.8971 25.3484C54.1599 24.9139 53.5741 24.3281 53.1396 23.5909C52.7052 22.8537 52.488 22.0506 52.488 21.1817V12.3944L56.1807 11.4465V21.1817C56.1807 21.4845 56.2926 21.7412 56.5164 21.9519C56.7402 22.1625 57.0034 22.2678 57.3062 22.2678L57.9579 24.1438L57.3062 26ZM56.6277 24.1438L57.2991 22.2678H71.7736C72.0764 22.2678 72.3331 22.1625 72.5438 21.9519C72.7544 21.7412 72.8597 21.4845 72.8597 21.1817C72.8597 20.879 72.7544 20.6222 72.5438 20.4116C72.3331 20.201 72.0764 20.0957 71.7736 20.0957H58.2667V16.3635L67.0146 11.4662L68.8708 14.2506L65.0992 16.3635H71.7736C72.6425 16.3635 73.4456 16.5807 74.1828 17.0151C74.92 17.4496 75.5058 18.0354 75.9403 18.7726C76.3747 19.5098 76.5919 20.3129 76.5919 21.1817C76.5919 22.0506 76.3747 22.8537 75.9403 23.5909C75.5058 24.3281 74.92 24.9139 74.1828 25.3484C73.4456 25.7828 72.6425 26 71.7736 26H57.2991L56.6277 24.1438Z" fill="#171F26"/>
<path d="M5.87163 42.8452C5.16952 42.8452 4.53365 42.6929 3.96401 42.3882C3.401 42.0769 2.95722 41.6496 2.63266 41.1065C2.31472 40.5634 2.15575 39.9507 2.15575 39.2684C2.15575 38.5862 2.31803 37.9735 2.64259 37.4304C2.96715 36.8872 3.41094 36.4633 3.97395 36.1586C4.54358 35.8473 5.17946 35.6916 5.88157 35.6916C6.4512 35.6916 6.97116 35.791 7.44144 35.9897C7.91172 36.1884 8.30914 36.4765 8.6337 36.8541L7.79912 37.639C7.29572 37.0959 6.67641 36.8243 5.94118 36.8243C5.46427 36.8243 5.03705 36.9303 4.6595 37.1422C4.28195 37.3476 3.9872 37.6357 3.77524 38.0066C3.56328 38.3775 3.4573 38.7981 3.4573 39.2684C3.4573 39.7387 3.56328 40.1593 3.77524 40.5302C3.9872 40.9012 4.28195 41.1926 4.6595 41.4046C5.03705 41.6099 5.46427 41.7126 5.94118 41.7126C6.67641 41.7126 7.29572 41.4377 7.79912 40.8879L8.6337 41.6828C8.30914 42.0603 7.90841 42.3484 7.4315 42.5471C6.96122 42.7458 6.44127 42.8452 5.87163 42.8452ZM14.2365 41.1363H10.759L10.0735 42.7458H8.74214L11.8718 35.791H13.1436L16.2832 42.7458H14.932L14.2365 41.1363ZM13.8092 40.1229L12.4978 37.0826L11.1962 40.1229H13.8092ZM21.7181 42.7458L20.2974 40.7091C20.2377 40.7157 20.1483 40.719 20.0291 40.719H18.4593V42.7458H17.1677V35.791H20.0291C20.6319 35.791 21.1551 35.8904 21.5989 36.0891C22.0493 36.2878 22.3938 36.5726 22.6322 36.9435C22.8707 37.3144 22.9899 37.7549 22.9899 38.2649C22.9899 38.7882 22.8607 39.2386 22.6024 39.6162C22.3507 39.9937 21.9864 40.2752 21.5095 40.4607L23.1091 42.7458H21.7181ZM21.6883 38.2649C21.6883 37.8212 21.5426 37.48 21.2512 37.2416C20.9597 37.0031 20.5325 36.8839 19.9695 36.8839H18.4593V39.6559H19.9695C20.5325 39.6559 20.9597 39.5367 21.2512 39.2982C21.5426 39.0532 21.6883 38.7087 21.6883 38.2649ZM25.7488 36.8839H23.4437V35.791H29.3454V36.8839H27.0404V42.7458H25.7488V36.8839ZM32.4028 42.8452C31.8663 42.8452 31.3464 42.769 30.843 42.6167C30.3462 42.4643 29.9521 42.2623 29.6606 42.0106L30.1077 41.0071C30.3926 41.2323 30.7403 41.4178 31.151 41.5635C31.5683 41.7026 31.9855 41.7722 32.4028 41.7722C32.9195 41.7722 33.3037 41.6894 33.5554 41.5238C33.8137 41.3582 33.9428 41.1396 33.9428 40.868C33.9428 40.6693 33.87 40.507 33.7243 40.3812C33.5852 40.2487 33.4063 40.1461 33.1877 40.0732C32.9692 40.0003 32.6711 39.9175 32.2935 39.8248C31.7637 39.699 31.3331 39.5731 31.0019 39.4473C30.6774 39.3214 30.3959 39.126 30.1574 38.8611C29.9256 38.5895 29.8097 38.2252 29.8097 37.7682C29.8097 37.384 29.9123 37.0362 30.1177 36.7249C30.3296 36.407 30.6443 36.1553 31.0615 35.9698C31.4855 35.7844 32.0021 35.6916 32.6115 35.6916C33.0354 35.6916 33.4527 35.7446 33.8634 35.8506C34.274 35.9566 34.6284 36.1089 34.9265 36.3076L34.5191 37.3111C34.2144 37.1323 33.8965 36.9965 33.5653 36.9038C33.2341 36.811 32.9129 36.7647 32.6015 36.7647C32.0915 36.7647 31.7107 36.8508 31.459 37.023C31.2139 37.1952 31.0914 37.4237 31.0914 37.7085C31.0914 37.9073 31.1609 38.0695 31.3 38.1954C31.4457 38.3212 31.6279 38.4206 31.8465 38.4935C32.065 38.5663 32.3631 38.6491 32.7406 38.7418C33.2573 38.8611 33.6812 38.9869 34.0124 39.1194C34.3436 39.2452 34.6251 39.4406 34.8569 39.7056C35.0954 39.9705 35.2146 40.3282 35.2146 40.7786C35.2146 41.1628 35.1086 41.5105 34.8966 41.8218C34.6913 42.1332 34.3767 42.3815 33.9528 42.567C33.5289 42.7525 33.0122 42.8452 32.4028 42.8452ZM41.0061 41.1363H37.5286L36.8431 42.7458H35.5117L38.6414 35.791H39.9131L43.0528 42.7458H41.7015L41.0061 41.1363ZM40.5788 40.1229L39.2673 37.0826L37.9658 40.1229H40.5788ZM49.3422 41.6529V42.7458H43.4107V41.8815L47.5041 36.8839H43.4802V35.791H49.213V36.6554L45.1196 41.6529H49.3422Z" fill="#0182FE"/>
<path d="M50.8035 42.8154C50.5783 42.8154 50.3863 42.7392 50.2273 42.5869C50.0683 42.4279 49.9888 42.2292 49.9888 41.9908C49.9888 41.7457 50.065 41.547 50.2174 41.3946C50.3763 41.2423 50.5717 41.1661 50.8035 41.1661C51.0354 41.1661 51.2275 41.2423 51.3798 41.3946C51.5388 41.547 51.6183 41.7457 51.6183 41.9908C51.6183 42.2292 51.5388 42.4279 51.3798 42.5869C51.2208 42.7392 51.0288 42.8154 50.8035 42.8154ZM55.9761 42.8452C55.274 42.8452 54.6381 42.6929 54.0684 42.3882C53.5054 42.0769 53.0616 41.6496 52.7371 41.1065C52.4192 40.5634 52.2602 39.9507 52.2602 39.2684C52.2602 38.5862 52.4225 37.9735 52.747 37.4304C53.0716 36.8872 53.5154 36.4633 54.0784 36.1586C54.648 35.8473 55.2839 35.6916 55.986 35.6916C56.5556 35.6916 57.0756 35.791 57.5459 35.9897C58.0162 36.1884 58.4136 36.4765 58.7381 36.8541L57.9035 37.639C57.4002 37.0959 56.7808 36.8243 56.0456 36.8243C55.5687 36.8243 55.1415 36.9303 54.7639 37.1422C54.3864 37.3476 54.0916 37.6357 53.8797 38.0066C53.6677 38.3775 53.5617 38.7981 53.5617 39.2684C53.5617 39.7387 53.6677 40.1593 53.8797 40.5302C54.0916 40.9012 54.3864 41.1926 54.7639 41.4046C55.1415 41.6099 55.5687 41.7126 56.0456 41.7126C56.7808 41.7126 57.4002 41.4377 57.9035 40.8879L58.7381 41.6828C58.4136 42.0603 58.0128 42.3484 57.5359 42.5471C57.0657 42.7458 56.5457 42.8452 55.9761 42.8452ZM63.0791 42.8452C62.3704 42.8452 61.7312 42.6929 61.1615 42.3882C60.5919 42.0769 60.1448 41.6496 59.8202 41.1065C59.4957 40.5567 59.3334 39.944 59.3334 39.2684C59.3334 38.5928 59.4957 37.9834 59.8202 37.4403C60.1448 36.8905 60.5919 36.4633 61.1615 36.1586C61.7312 35.8473 62.3704 35.6916 63.0791 35.6916C63.7878 35.6916 64.427 35.8473 64.9966 36.1586C65.5663 36.4633 66.0134 36.8872 66.3379 37.4304C66.6625 37.9735 66.8248 38.5862 66.8248 39.2684C66.8248 39.9507 66.6625 40.5634 66.3379 41.1065C66.0134 41.6496 65.5663 42.0769 64.9966 42.3882C64.427 42.6929 63.7878 42.8452 63.0791 42.8452ZM63.0791 41.7126C63.5427 41.7126 63.96 41.6099 64.331 41.4046C64.7019 41.1926 64.9933 40.9012 65.2053 40.5302C65.4172 40.1527 65.5232 39.7321 65.5232 39.2684C65.5232 38.8048 65.4172 38.3875 65.2053 38.0166C64.9933 37.639 64.7019 37.3476 64.331 37.1422C63.96 36.9303 63.5427 36.8243 63.0791 36.8243C62.6154 36.8243 62.1981 36.9303 61.8272 37.1422C61.4563 37.3476 61.1649 37.639 60.9529 38.0166C60.7409 38.3875 60.635 38.8048 60.635 39.2684C60.635 39.7321 60.7409 40.1527 60.9529 40.5302C61.1649 40.9012 61.4563 41.1926 61.8272 41.4046C62.1981 41.6099 62.6154 41.7126 63.0791 41.7126ZM74.5824 42.7458L74.5724 38.1358L72.2873 41.951H71.711L69.4259 38.1954V42.7458H68.1939V35.791H69.257L72.019 40.4011L74.7314 35.791H75.7945L75.8045 42.7458H74.5824Z" fill="#171F26"/>
</svg>
